# xmcd
# 
# Track frame offsets:
#     150
#     17470
#     43180
#     63527
#     80417
#     98820
#     119445
#     137955
#     155762
#     170480
#     184435
#     200480
#     219255
#     251665
#     272565
#     308127
#     330017
# 
# Disc length: 4615
# 
# Revision: 21
# Processed by: cddbd v1.5.2PL0 Copyright (c) Steve Scherf et al.
# Submitted via: BonkEnc v1.0.6
# 
DISCID=f1120511
DTITLE=R. Kelly - Chocolate Factory
DYEAR=2003
DGENRE=R&B
TTITLE0=Chocolate Factory
TTITLE1=Step in the Name of Love
TTITLE2=Heart of a Woman
TTITLE3=I'll Never Leave
TTITLE4=Been Around the World (feat. Ja Rule)
TTITLE5=You Made Me Love You
TTITLE6=Forever
TTITLE7=Dream Girl
TTITLE8=Ignition
TTITLE9=Ignition - Remix
TTITLE10=Forever More
TTITLE11=You Knock Me Out
TTITLE12=Step in the Name of Love - Remix
TTITLE13=Imagine That
TTITLE14=Showdown (feat. Ronald Isley)
TTITLE15=Snake (feat. Big Tigger)
TTITLE16=Who's That (feat. Fat Joe)
EXTD=Chocolate Factory YEAR: 2003 ID3G: 14
EXTT0=
EXTT1=
EXTT2=
EXTT3=
EXTT4=
EXTT5=
EXTT6=
EXTT7=
EXTT8=
EXTT9=
EXTT10=
EXTT11=
EXTT12=
EXTT13=
EXTT14=
EXTT15=
EXTT16=
PLAYORDER=
